<svg width="388" height="318" viewBox="0 0 388 318" fill="none" xmlns="http://www.w3.org/2000/svg">
<path d="M358.685 237.032H29.4578C21.5443 237.032 15.1289 230.618 15.1289 222.703V14.6951C15.1289 6.7816 21.5443 0.366211 29.4578 0.366211H358.685C366.6 0.366211 373.014 6.7816 373.014 14.6951V222.703C373.014 230.618 366.6 237.032 358.685 237.032Z" fill="#1F3E79"/>
<path d="M370.364 240.2H17.635C7.96665 240.2 0.128906 232.361 0.128906 222.693V219.491H387.871V222.693C387.871 232.361 380.032 240.2 370.364 240.2Z" fill="#0D1D3A"/>
<path d="M24.4391 9.75732H362.111V209.619H24.4391V9.75732Z" fill="#00A5D7"/>
<path d="M158.734 219.491L163.546 227.144L231.251 227.144L235.719 219.491L158.734 219.491Z" fill="#CCD7DD"/>
<path d="M353.239 208.948H35.2224C33.444 208.948 32.002 207.506 32.002 205.729V19.7119C32.002 17.9345 33.444 16.4924 35.2214 16.4924H353.239C355.018 16.4924 356.458 17.9335 356.458 19.7119V205.73C356.458 207.507 355.018 208.948 353.239 208.948Z" fill="#CCD7DD"/>
<path d="M32 30H356V208.354H32V30Z" fill="white"/>
<path d="M369.699 219.544C369.699 219.673 290.265 219.775 192.301 219.775C94.3059 219.775 14.8878 219.673 14.8878 219.544C14.8878 219.416 94.3059 219.312 192.301 219.312C290.265 219.312 369.699 219.416 369.699 219.544Z" fill="#455A64"/>
<path d="M217.114 138.361H210.229V100.883C210.229 92.0623 203.052 84.8856 194.23 84.8856C185.41 84.8856 178.233 92.0623 178.233 100.883V138.361H171.348V100.883C171.348 88.2654 181.613 78 194.23 78C206.848 78 217.114 88.2654 217.114 100.883V138.361Z" fill="#00A5D7"/>
<path d="M218.961 161.205H168.715C165.558 161.205 163 158.646 163 155.489V127.351C163 124.194 165.558 121.635 168.715 121.635H218.961C222.118 121.635 224.677 124.194 224.677 127.351V155.489C224.677 158.646 222.118 161.205 218.961 161.205Z" fill="#FCD761"/>
<path d="M198.668 136.305C198.668 139.153 196.359 141.461 193.513 141.461C190.665 141.461 188.357 139.153 188.357 136.305C188.357 133.458 190.665 131.15 193.513 131.15C196.359 131.15 198.668 133.458 198.668 136.305Z" fill="#00A5D7"/>
<path d="M192.819 138.33H195.631V148.933H192.819V138.33Z" fill="#00A5D7"/>
<path d="M166.292 157.468C166.15 157.468 166.035 150.868 166.035 142.731C166.035 134.588 166.15 127.99 166.292 127.99C166.434 127.99 166.548 134.588 166.548 142.731C166.548 150.868 166.434 157.468 166.292 157.468Z" fill="#FAFAFA"/>
<path d="M189.91 142.907C189.893 142.933 189.669 142.827 189.306 142.564C188.942 142.304 188.457 141.859 187.976 141.21C187.015 139.949 186.135 137.659 186.706 135.186C187.306 132.719 189.118 131.065 190.544 130.37C191.264 130.006 191.897 129.825 192.338 129.755C192.781 129.683 193.029 129.689 193.033 129.719C193.053 129.816 192.055 129.909 190.717 130.686C189.401 131.43 187.757 133.025 187.205 135.305C186.676 137.588 187.431 139.75 188.274 141.004C189.121 142.298 189.972 142.831 189.91 142.907Z" fill="#FAFAFA"/>
<path d="M332.107 290.735C332.107 290.735 337.524 288.009 340.851 292.068C344.176 296.125 348.932 305.701 349.079 312.174C349.226 318.644 343.944 318.209 340.806 316.676C337.665 315.144 328.494 301.875 327.938 299.275C327.383 296.673 328.593 293.158 329.476 292.47C330.358 291.782 332.107 290.735 332.107 290.735Z" fill="#314351"/>
<path d="M331.086 289.524L330.836 295.121C330.782 296.312 331.382 297.445 332.421 298.033C333.367 298.568 334.741 298.979 336.6 298.681C340.68 298.026 341.045 296.864 341.336 291.268C341.626 285.671 331.086 289.524 331.086 289.524Z" fill="#00A5D7"/>
<path d="M352.101 279.959C352.101 279.959 357.518 277.235 360.845 281.292C364.17 285.348 368.926 294.926 369.073 301.399C369.221 307.869 363.939 307.432 360.8 305.902C357.66 304.369 348.488 291.099 347.933 288.499C347.377 285.898 348.587 282.384 349.47 281.695C350.352 281.007 352.101 279.959 352.101 279.959Z" fill="#314351"/>
<path d="M351.082 278.748L350.832 284.345C350.778 285.536 351.378 286.67 352.417 287.258C353.364 287.794 354.737 288.204 356.596 287.906C360.676 287.252 361.041 286.089 361.332 280.493C361.622 274.897 351.082 278.748 351.082 278.748Z" fill="#00A5D7"/>
<path d="M302.596 176.007C304.199 149.989 330.845 179.835 330.845 179.835L349.082 197.665L365.504 215.66C368.712 219.173 370.204 223.919 369.583 228.631L362.94 279.086C362.612 281.579 360.474 283.417 357.954 283.397C357.243 283.391 356.428 283.327 355.494 283.182C349.567 282.262 350.005 276.641 350.005 276.641L351.219 229.449L316.732 208.712C316.732 208.712 300.994 202.025 302.596 176.007Z" fill="#314351"/>
<path d="M282.601 185.975C284.311 159.964 310.851 189.803 310.851 189.803L329.088 207.634L345.51 225.627C348.718 229.142 350.209 233.888 349.588 238.601L342.945 289.056C342.618 291.548 340.48 293.386 337.96 293.367C337.249 293.36 336.434 293.296 335.5 293.15C329.573 292.23 330.011 286.609 330.011 286.609L331.225 239.418L296.737 218.68C296.737 218.68 281.039 209.757 282.601 185.975Z" fill="#314351"/>
<path d="M298.5 102.314C278.298 110.67 278.703 122.58 278.703 122.58C278.703 122.58 282.661 166.248 281.31 195.411C280.745 207.603 346.248 208.533 336.479 176.007C324.962 137.658 329.278 106.611 323.887 101.929C318.495 97.2466 303.726 100.154 298.5 102.314Z" fill="#00A5D7"/>
<path d="M291.959 112.918C293.015 117.009 298.39 119.166 303.962 117.733C309.535 116.302 313.196 111.825 312.138 107.734C311.082 103.642 305.708 101.487 300.136 102.917C294.563 104.35 290.901 108.828 291.959 112.918Z" fill="#EED0DE"/>
<path d="M303.916 103.43C307.667 103.43 310.804 105.172 311.527 107.968C311.959 109.643 311.457 111.472 310.11 113.117C308.696 114.847 306.542 116.153 304.044 116.795C298.996 118.088 294.139 116.243 293.217 112.674C292.785 110.998 293.287 109.17 294.633 107.525C296.047 105.794 298.202 104.488 300.699 103.845C301.794 103.564 302.879 103.43 303.916 103.43ZM300.874 119.131C302.058 119.131 303.288 118.979 304.526 118.662C307.419 117.918 309.934 116.381 311.608 114.334C313.351 112.203 313.987 109.772 313.396 107.488C312.211 102.888 306.296 100.415 300.218 101.98C297.324 102.722 294.81 104.261 293.136 106.308C291.392 108.44 290.757 110.87 291.347 113.153C292.292 116.817 296.236 119.131 300.874 119.131Z" fill="white"/>
<path d="M306.98 101.344C306.98 101.344 306.807 102.152 307.157 108.537C307.266 110.545 300.22 112.42 298.398 110.603C296.576 108.787 297.305 106.897 296.868 100.065C296.43 93.2335 306.98 101.344 306.98 101.344Z" fill="#EED0DE"/>
<path d="M296.868 100.062C296.868 100.062 298.604 106.397 307.158 108.827L307.028 103.07L296.868 100.062Z" fill="#EBCCDA"/>
<path d="M291.386 84.0325C289.235 92.3263 294.234 100.787 302.548 102.932C310.863 105.075 319.345 100.091 321.495 91.7967C323.645 83.5039 318.648 75.0428 310.333 72.8973C302.019 70.7539 293.535 75.7397 291.386 84.0325Z" fill="#EED0DE"/>
<path d="M302.761 88.5306C302.761 88.5306 311.322 92.1888 317.251 92.2303C323.179 92.273 321.872 87.3209 321.872 87.3209L304.274 84.7837L302.761 88.5306Z" fill="#E3C5D3"/>
<path d="M318.707 89.4498C318.707 89.4498 311.25 86.292 304.708 87.6083C303.169 87.918 301.743 88.7395 300.753 89.9525C300.429 90.3486 300.02 90.7111 299.556 90.8154C298.396 91.078 296.497 86.2763 294.242 86.1675C291.987 86.0575 290.482 87.6498 292.331 90.6033C294.18 93.5557 293.554 96.8605 292.705 97.3341C291.853 97.8076 282.83 90.9142 290.789 75.186C298.75 59.4578 318.968 67.929 322.114 71.1171C322.114 71.1171 325.426 73.9954 328.12 71.4335C328.12 71.4335 331.141 93.9979 318.707 89.4498Z" fill="#0091BE"/>
<path d="M290.316 154.546V166.345C290.316 167.697 290.886 168.986 291.888 169.898L316.189 191.997L313.429 196.209L281.335 172.993C279.838 171.909 278.873 170.242 278.679 168.406L276.509 147.828L290.316 154.546Z" fill="#EED0DE"/>
<path d="M280.287 116.628C280.287 116.628 272.913 127.688 270.167 156.798C270.167 156.798 282.761 160.86 289.909 158.553C297.055 156.248 280.287 116.628 280.287 116.628Z" fill="#00A5D7"/>
<path d="M291.853 130.62C291.853 130.62 294.739 146.028 294.903 153.269C294.948 155.259 293.73 157.055 291.853 157.732V130.62Z" fill="#0088B1"/>
<path d="M297.526 207.211L302.898 206.504L337.569 186.538C338.68 185.897 340.622 185.978 341.906 186.717L366.474 200.86L369.721 200.431V203.658H369.717C369.74 204.082 369.497 204.491 368.973 204.793L329.679 227.42C328.568 228.062 326.627 227.98 325.343 227.242L298.587 211.839C297.865 211.423 297.506 210.888 297.526 210.385V207.211Z" fill="#006684"/>
<path d="M323.578 194.6L326.041 193.182H353.122L366.474 200.865L369.721 200.437V203.663H369.717C369.74 204.087 369.497 204.497 368.973 204.798L329.679 227.426C329.092 227.765 328.273 227.899 327.442 227.844L323.578 194.6Z" fill="#006684"/>
<path d="M329.732 227.684C328.678 228.083 327.173 227.996 326.048 227.455V221.97H329.732V227.684Z" fill="#005C78"/>
<path d="M329.677 224.349L368.97 201.722C370.082 201.082 369.942 199.964 368.659 199.225L341.904 183.821C340.62 183.083 338.678 183.002 337.567 183.643L298.273 206.27C297.162 206.91 297.301 208.029 298.585 208.767L325.341 224.171C326.625 224.909 328.566 224.99 329.677 224.349Z" fill="#FBFDFF"/>
<path d="M330.62 220.856L363.292 202.039C364.216 201.508 364.101 200.577 363.033 199.962L348.696 191.921C347.628 191.306 346.014 191.24 345.09 191.773L312.419 210.587C311.494 211.12 311.61 212.049 312.677 212.664L327.014 220.707C328.081 221.32 329.696 221.387 330.62 220.856Z" fill="#BEE7FB"/>
<path d="M340.713 182.962L341.119 185.667C341.467 187.971 341.406 190.318 340.943 192.601L340.459 194.984C340.186 196.328 339.12 197.371 337.768 197.615C336.711 197.807 335.714 197.068 335.593 196.003L334.945 190.223C334.945 190.223 333.463 192.159 332.746 192.159C332.03 192.159 333.548 186.37 335.166 183.093C336.786 179.817 340.713 182.962 340.713 182.962Z" fill="#EED0DE"/>
<path d="M327.404 140.067L331.62 148.39C332.618 150.358 333.204 152.508 333.346 154.709L335.176 183.178L340.723 183.047L343.241 151.075C343.319 150.088 343.272 149.095 343.097 148.119L340.223 131.906L327.404 140.067Z" fill="#EED0DE"/>
<path d="M331.031 226.429L334.326 222.138L368.973 202.129C370.084 201.488 370.982 199.77 370.981 198.291L370.95 169.998L372.943 167.404L371.071 166.322L371.069 166.324C370.711 166.094 370.234 166.101 369.71 166.403L330.446 189.079C329.334 189.72 328.436 191.438 328.437 192.916L328.47 223.73C328.472 224.563 328.757 225.14 329.205 225.373L331.031 226.429Z" fill="#006684"/>
<path d="M354.992 210.205L357.452 208.782L370.964 185.373L370.95 169.998L372.943 167.404L371.071 166.322L371.069 166.324C370.711 166.094 370.234 166.101 369.71 166.403L330.446 189.079C329.859 189.417 329.332 190.059 328.965 190.805L354.992 210.205Z" fill="#0088B1"/>
<path d="M372.059 168.554L372.943 167.404L371.071 166.322L371.069 166.324C370.711 166.094 370.234 166.101 369.71 166.403L369.019 166.802L372.059 168.554Z" fill="#005C78"/>
<path d="M330.215 189.322C329.343 190.033 328.667 191.379 328.574 192.621L332.412 194.831L334.25 191.645L330.215 189.322Z" fill="#005C78"/>
<path d="M332.923 190.207L372.187 167.53C373.298 166.889 374.2 167.568 374.202 169.046L374.234 199.859C374.237 201.337 373.339 203.056 372.227 203.698L332.962 226.374C331.852 227.014 330.949 226.337 330.947 224.858L330.915 194.044C330.913 192.566 331.811 190.848 332.923 190.207Z" fill="#00A5D7"/>
<path d="M313.563 196.107L314.192 197.408C314.917 198.905 316.055 200.164 317.474 201.035L321.374 203.434C322.587 204.18 324.124 204.241 325.356 203.526L325.489 203.446C326.728 202.67 326.84 200.895 325.82 199.849L321.744 195.67C321.744 195.67 324.034 197.42 324.675 196.716C325.145 196.199 322.455 193.679 320.39 193.596C318.323 193.514 316.324 191.896 316.324 191.896L313.563 196.107Z" fill="#EED0DE"/>
<path d="M323.598 101.832C323.598 101.832 338.539 118.048 344.566 132.924C344.566 132.924 339.458 142.106 326.951 145.709C314.444 149.311 323.598 101.832 323.598 101.832Z" fill="#00A5D7"/>
<path d="M329.675 144.787L327.253 121.452L332.959 143.315C331.942 143.843 330.842 144.335 329.675 144.787Z" fill="#0088B1"/>
<path d="M312.175 98.5899L316.189 97.489C316.189 97.489 314.272 100.498 311.475 101.264C308.675 102.03 308.241 99.6682 308.241 99.6682L312.175 98.5899Z" fill="white"/>
<circle cx="193.817" cy="119.817" r="74.8169" stroke="#FCD761" stroke-width="2" stroke-dasharray="5 5"/>
<circle cx="193.817" cy="119.817" r="62.3538" stroke="#FCD761" stroke-width="2" stroke-dasharray="5 5"/>
</svg>
