<?xml version="1.0" standalone="no"?>
<!DOCTYPE svg PUBLIC "-//W3C//DTD SVG 20010904//EN"
 "http://www.w3.org/TR/2001/REC-SVG-20010904/DTD/svg10.dtd">
<svg version="1.0" xmlns="http://www.w3.org/2000/svg"
 width="1280.000000pt" height="875.000000pt" viewBox="0 0 1280.000000 875.000000"
 preserveAspectRatio="xMidYMid meet">
<metadata>
Created by potrace 1.15, written by Peter Selinger 2001-2017
</metadata>
<g transform="translate(0.000000,875.000000) scale(0.100000,-0.100000)"
fill="#000000" stroke="none">
<path d="M2102 6259 c-131 -22 -242 -80 -342 -181 -79 -79 -132 -173 -160
-284 -19 -75 -20 -116 -20 -1334 0 -1218 1 -1259 20 -1334 53 -209 206 -373
414 -444 l81 -27 4210 0 c3989 0 4213 1 4274 18 102 28 198 84 277 162 83 82
134 169 164 276 20 76 20 86 18 1375 l-3 1299 -31 76 c-78 192 -224 326 -419
385 -58 18 -227 19 -4245 20 -2369 1 -4208 -2 -4238 -7z m1168 -1210 c69 -14
99 -30 140 -71 54 -54 80 -121 80 -209 0 -88 -19 -151 -60 -201 -32 -39 -138
-98 -175 -98 -38 0 -35 -11 14 -49 27 -20 60 -50 74 -67 20 -24 189 -281 231
-351 6 -10 -22 -13 -123 -13 l-131 0 -114 173 c-163 244 -180 260 -303 271
l-73 6 0 -225 0 -225 -110 0 -110 0 0 533 c0 294 3 537 8 542 11 12 588 -2
652 -16z m2390 -74 l0 -95 -100 0 -100 0 0 95 0 95 100 0 100 0 0 -95z m1280
-70 l0 -135 70 0 70 0 0 -80 0 -80 -70 0 -70 0 0 -219 c0 -258 0 -257 86 -248
61 6 60 7 63 -85 l2 -67 -38 -10 c-21 -6 -71 -11 -112 -11 -98 0 -153 25 -184
84 -21 39 -22 55 -25 286 -1 135 -5 251 -7 258 -3 7 -22 12 -50 12 l-45 0 0
80 0 80 50 0 50 0 0 78 0 78 98 57 c53 31 100 57 105 57 4 0 7 -61 7 -135z
m2461 -185 c107 -62 303 -175 437 -252 134 -77 242 -142 240 -143 -6 -5 -891
-515 -895 -515 -1 0 -3 232 -3 516 0 430 2 515 14 511 7 -3 100 -56 207 -117z
m-5239 33 c128 -58 208 -200 208 -370 l0 -63 -261 0 -261 0 7 -37 c16 -86 54
-133 127 -155 54 -16 114 5 145 50 12 18 23 37 25 43 2 6 40 4 105 -7 l101
-17 -11 -26 c-39 -92 -114 -161 -204 -187 -80 -23 -230 -16 -298 15 -120 53
-190 170 -202 338 -14 202 77 368 235 428 57 22 224 15 284 -12z m778 6 c25
-11 62 -37 83 -57 l37 -36 0 52 0 52 95 0 96 0 -3 -442 c-3 -438 -3 -444 -26
-493 -56 -121 -146 -165 -342 -165 -175 0 -279 40 -327 125 -22 39 -41 121
-30 131 2 3 55 -1 116 -7 105 -12 112 -14 124 -38 20 -42 72 -63 141 -57 109
11 137 46 144 182 2 52 2 94 -1 94 -2 0 -21 -16 -42 -35 -54 -52 -92 -68 -171
-73 -118 -7 -203 34 -268 132 -47 71 -66 148 -66 268 0 188 65 306 202 368 60
27 177 27 238 -1z m1369 10 c74 -16 135 -59 170 -121 17 -29 31 -56 31 -59 0
-6 -190 -43 -194 -38 -1 2 -10 17 -20 32 -23 37 -72 57 -138 57 -70 0 -122
-26 -126 -62 -5 -39 28 -56 181 -95 227 -58 293 -102 318 -209 24 -104 -38
-217 -149 -271 -54 -27 -64 -28 -197 -28 -123 0 -147 3 -197 23 -68 28 -133
88 -160 149 -11 24 -18 46 -16 48 5 4 200 36 202 33 36 -85 66 -108 147 -115
96 -9 169 28 169 85 0 34 -36 53 -171 88 -170 43 -251 82 -287 137 -24 36 -27
50 -27 122 0 78 2 84 35 128 38 50 86 82 146 96 55 13 224 13 283 0z m1358
-10 c42 -16 73 -37 114 -78 72 -73 99 -141 106 -268 l6 -93 -262 0 -262 0 7
-37 c11 -66 45 -116 94 -141 86 -44 164 -12 206 86 2 3 197 -29 202 -33 2 -2
-6 -22 -18 -45 -32 -64 -94 -125 -153 -151 -45 -21 -67 -24 -172 -24 -139 0
-182 14 -258 84 -135 124 -153 422 -37 585 42 58 108 105 180 127 54 16 187
10 247 -12z m853 5 c31 -13 40 -21 35 -33 -4 -9 -18 -47 -31 -85 -13 -38 -25
-71 -27 -73 -2 -2 -23 4 -47 12 -79 28 -130 3 -166 -80 -15 -33 -19 -80 -22
-277 l-4 -238 -104 0 -104 0 0 390 0 390 95 0 95 0 0 -50 c0 -27 3 -50 8 -50
4 0 19 18 34 39 15 21 42 45 60 54 43 21 127 21 178 1z m-2860 -384 l0 -390
-100 0 -100 0 0 390 0 390 100 0 100 0 0 -390z"/>
<path d="M2830 4745 l0 -135 165 0 c187 0 222 8 255 62 28 45 27 117 -2 153
-37 48 -72 55 -253 55 l-165 0 0 -135z"/>
<path d="M3955 4616 c-54 -24 -95 -85 -95 -142 l0 -24 156 0 156 0 -7 33 c-13
62 -40 101 -85 125 -50 25 -82 27 -125 8z"/>
<path d="M4824 4619 c-40 -11 -90 -67 -103 -116 -14 -49 -14 -177 0 -226 13
-49 61 -103 105 -117 89 -30 191 37 213 139 33 154 -18 293 -117 321 -43 12
-56 11 -98 -1z"/>
<path d="M7475 4616 c-54 -24 -95 -85 -95 -142 l0 -24 156 0 156 0 -7 38 c-19
107 -119 168 -210 128z"/>
</g>
</svg>
