<svg width="412" height="161" viewBox="0 0 412 161" fill="none" xmlns="http://www.w3.org/2000/svg">
<g clip-path="url(#clip0)">
<path d="M30 15.7229H109.333V101.022H30V15.7229Z" fill="white" fill-opacity="0.01"/>
<path d="M69.6667 35.5579C67.3927 35.5539 65.1707 34.8792 63.2804 33.619C61.3901 32.3587 59.916 30.5691 59.0436 28.4755C58.1712 26.3818 57.9395 24.0777 58.3778 21.8531C58.8159 19.6285 59.9044 17.5828 61.5062 15.9735C61.6758 15.8656 61.8773 15.8186 62.0773 15.8404C62.2773 15.8622 62.4638 15.9513 62.6061 16.0931C62.7484 16.235 62.8378 16.421 62.8596 16.6204C62.8814 16.8198 62.8343 17.0206 62.7261 17.1897C61.8129 18.0963 61.0896 19.175 60.5986 20.363C60.1075 21.5509 59.8584 22.8244 59.8657 24.1092C59.8601 25.394 60.1098 26.6671 60.6004 27.8551C61.091 29.0431 61.8127 30.1224 62.7239 31.0309C63.6352 31.9393 64.7178 32.6589 65.9095 33.148C67.1011 33.6371 68.378 33.886 69.6667 33.8805C69.8898 33.8805 70.1038 33.9688 70.2616 34.1261C70.4193 34.2834 70.508 34.4967 70.508 34.7192C70.508 34.9416 70.4193 35.155 70.2616 35.3123C70.1038 35.4696 69.8898 35.5579 69.6667 35.5579Z" fill="#344563"/>
<path d="M69.6666 35.5579C69.4435 35.5579 69.2295 35.4696 69.0717 35.3123C68.9139 35.155 68.8253 34.9416 68.8253 34.7192C68.8253 34.4967 68.9139 34.2834 69.0717 34.1261C69.2295 33.9688 69.4435 33.8805 69.6666 33.8805C71.608 33.8845 73.5071 33.3136 75.1224 32.2402C76.7381 31.1668 77.9975 29.6393 78.7408 27.8513C79.4845 26.0633 79.6784 24.0954 79.2985 22.1973C78.9187 20.2992 77.9819 18.5563 76.6073 17.1897C76.4987 17.0206 76.4516 16.8198 76.4735 16.6204C76.4954 16.421 76.585 16.235 76.7272 16.0931C76.8693 15.9513 77.0561 15.8622 77.2559 15.8404C77.4561 15.8186 77.6576 15.8656 77.8271 15.9735C79.972 18.133 81.175 21.0492 81.175 24.0883C81.175 27.1273 79.972 30.0436 77.8271 32.203C76.7574 33.2731 75.4854 34.1207 74.0843 34.6966C72.6835 35.2725 71.1819 35.5653 69.6666 35.5579Z" fill="#0065FF"/>
<path d="M69.2039 59.4617H40.6002C37.7888 59.4617 35.0926 58.3483 33.1047 56.3664C31.1168 54.3845 30 51.6965 30 48.8937C30 48.6712 30.0886 48.4579 30.2464 48.3006C30.4042 48.1433 30.6182 48.0549 30.8413 48.0549C31.0644 48.0549 31.2784 48.1433 31.4362 48.3006C31.5939 48.4579 31.6826 48.6712 31.6826 48.8937C31.6936 51.2482 32.6367 53.5031 34.3067 55.168C35.9767 56.833 38.2385 57.7733 40.6002 57.7842H69.2039C69.316 57.7783 69.4281 57.7955 69.5329 57.8358C69.6378 57.8756 69.7329 57.9373 69.8123 58.0165C69.8917 58.0954 69.9535 58.1906 69.9936 58.295C70.0337 58.3994 70.0513 58.5114 70.0452 58.6229C70.0452 58.8452 69.9566 59.0587 69.7988 59.2159C69.641 59.3732 69.4271 59.4617 69.2039 59.4617Z" fill="#253858"/>
<path d="M98.7331 59.4617H69.2039C68.9808 59.4617 68.7669 59.3732 68.6091 59.2159C68.4513 59.0587 68.3627 58.8452 68.3627 58.6229C68.3566 58.5114 68.3742 58.3994 68.4144 58.295C68.4545 58.1906 68.5162 58.0954 68.5956 58.0165C68.6749 57.9373 68.7701 57.8756 68.875 57.8358C68.9798 57.7955 69.0919 57.7783 69.2039 57.7842H98.7331C101.095 57.7733 103.357 56.833 105.027 55.168C106.697 53.5031 107.64 51.2482 107.651 48.8937C107.651 48.6712 107.739 48.4579 107.897 48.3006C108.055 48.1433 108.269 48.0549 108.492 48.0549C108.715 48.0549 108.929 48.1433 109.087 48.3006C109.245 48.4579 109.333 48.6712 109.333 48.8937C109.333 51.6965 108.216 54.3845 106.229 56.3664C104.241 58.3483 101.545 59.4617 98.7331 59.4617Z" fill="#0065FF"/>
<path d="M108.492 70.4492H69.204C68.9809 70.4492 68.7669 70.3611 68.6091 70.2039C68.4514 70.0466 68.3627 69.8331 68.3627 69.6105C68.3627 69.3882 68.4514 69.1747 68.6091 69.0175C68.7669 68.8602 68.9809 68.7717 69.204 68.7717H108.492C108.715 68.7717 108.929 68.8602 109.087 69.0175C109.245 69.1747 109.333 69.3882 109.333 69.6105C109.333 69.8331 109.245 70.0466 109.087 70.2039C108.929 70.3611 108.715 70.4492 108.492 70.4492Z" fill="#0065FF"/>
<path d="M69.2039 70.4492H30.8413C30.6182 70.4492 30.4042 70.3611 30.2464 70.2039C30.0886 70.0466 30 69.8331 30 69.6105C30 69.3882 30.0886 69.1747 30.2464 69.0175C30.4042 68.8602 30.6182 68.7717 30.8413 68.7717H69.2039C69.4271 68.7717 69.641 68.8602 69.7988 69.0175C69.9566 69.1747 70.0452 69.3882 70.0452 69.6105C70.0452 69.8331 69.9566 70.0466 69.7988 70.2039C69.641 70.3611 69.4271 70.4492 69.2039 70.4492Z" fill="#253858"/>
<path d="M30.8413 91.2073C30.6182 91.2073 30.4042 91.1192 30.2464 90.9615C30.0886 90.8043 30 90.5912 30 90.3686C30 87.5659 31.1168 84.8778 33.1047 82.8959C35.0926 80.914 37.7888 79.8005 40.6002 79.8005H69.2039C69.4271 79.8005 69.641 79.889 69.7988 80.0463C69.9566 80.2035 70.0452 80.417 70.0452 80.6393C70.0452 80.862 69.9566 81.075 69.7988 81.2323C69.641 81.3899 69.4271 81.478 69.2039 81.478H40.6002C39.4291 81.478 38.2695 81.7082 37.1876 82.1549C36.1056 82.6015 35.1226 83.2565 34.2945 84.0823C32.6221 85.7492 31.6826 88.0109 31.6826 90.3686C31.6826 90.5912 31.5939 90.8043 31.4362 90.9615C31.2784 91.1192 31.0644 91.2073 30.8413 91.2073Z" fill="#253858"/>
<path d="M108.492 91.2073C108.269 91.2073 108.055 91.1192 107.897 90.9615C107.739 90.8043 107.651 90.5912 107.651 90.3686C107.651 88.0109 106.711 85.7492 105.039 84.0823C103.366 82.4149 101.098 81.478 98.7331 81.478H69.204C68.9809 81.478 68.7669 81.3899 68.6091 81.2323C68.4514 81.075 68.3627 80.862 68.3627 80.6393C68.3627 80.417 68.4514 80.2035 68.6091 80.0463C68.7669 79.889 68.9809 79.8005 69.204 79.8005H98.7331C101.545 79.8005 104.241 80.914 106.229 82.8959C108.216 84.8778 109.333 87.5659 109.333 90.3686C109.333 90.5912 109.245 90.8043 109.087 90.9615C108.929 91.1192 108.715 91.2073 108.492 91.2073Z" fill="#0065FF"/>
<path d="M67.4372 38.8289H71.8961C74.1587 38.8234 76.4007 39.263 78.4926 40.1225C80.5849 40.982 82.4866 42.2445 84.0884 43.8378C85.6906 45.4311 86.9614 47.3237 87.8288 49.4074C88.6961 51.4912 89.1424 53.725 89.1424 55.981V64.9553H50.1909V55.981C50.1909 53.725 50.6373 51.4912 51.5045 49.4074C52.3717 47.3237 53.6428 45.4311 55.2448 43.8378C56.8468 42.2445 58.7484 40.982 60.8405 40.1225C62.9327 39.263 65.1744 38.8234 67.4372 38.8289Z" fill="#253858"/>
<path d="M69.6667 41.2195H55.0283C54.8866 41.2196 54.7463 41.1911 54.6159 41.1359C54.4855 41.0806 54.3676 40.9996 54.2694 40.8977C54.1712 40.7959 54.0946 40.6753 54.0443 40.5432C53.994 40.4112 53.971 40.2703 53.9766 40.1291C54.2637 36.1759 56.0413 32.4776 58.9521 29.778C61.863 27.0783 65.6911 25.5774 69.6667 25.5771V41.2195Z" fill="url(#paint0_linear)"/>
<path d="M69.6666 25.5771C73.638 25.5781 77.4608 27.0804 80.3649 29.781C83.269 32.4816 85.0378 36.1796 85.3146 40.1291C85.3264 40.2682 85.3087 40.4081 85.2633 40.5401C85.2178 40.672 85.1451 40.7932 85.0504 40.8957C84.9554 40.9982 84.8401 41.08 84.7118 41.1357C84.5835 41.1914 84.4451 41.22 84.305 41.2195H69.6666V25.5771Z" fill="url(#paint1_linear)"/>
<path d="M83.9685 43.9873C80.1752 43.9873 76.5375 45.4895 73.8554 48.1635C71.1734 50.8375 69.6666 54.4642 69.6666 58.2458V101.021C77.2492 101.01 84.5183 98.0021 89.8803 92.6565C95.2422 87.3108 98.259 80.0637 98.2704 72.5043V48.4745C98.2704 47.2844 97.7959 46.1431 96.9521 45.3016C96.1079 44.4601 94.9633 43.9873 93.7695 43.9873H83.9685Z" fill="url(#paint2_linear)"/>
<path d="M88.0908 59.6717L80.3931 51.9553L69.6667 62.6492L58.9402 51.9553L51.2425 59.6717L61.9689 70.3656L51.2425 81.0594L58.9402 88.7338L69.6667 78.04L80.3931 88.7338L88.0908 81.0594L77.3644 70.3656L88.0908 59.6717Z" fill="#F15538"/>
<path d="M41.0628 48.4745V72.5043C41.0628 80.0671 44.0764 87.3209 49.4407 92.6686C54.8049 98.0168 62.0804 101.021 69.6666 101.021V58.2458C69.6666 54.4642 68.1598 50.8375 65.4776 48.1635C62.7955 45.4895 59.1578 43.9873 55.3647 43.9873H45.5637C44.9727 43.9873 44.3874 44.1033 43.8413 44.3289C43.2952 44.5544 42.7991 44.8849 42.3811 45.3016C41.9632 45.7182 41.6316 46.2129 41.4054 46.7573C41.1793 47.3018 41.0628 47.8852 41.0628 48.4745Z" fill="url(#paint3_linear)"/>
<path d="M88.0908 59.6717L80.3931 51.9553L69.6667 62.6492L58.9402 51.9553L51.2425 59.6717L61.9689 70.3656L51.2425 81.0594L58.9402 88.7338L69.6667 78.04L80.3931 88.7338L88.0908 81.0594L77.3644 70.3656L88.0908 59.6717Z" fill="#E64418"/>
</g>
<g clip-path="url(#clip1)">
<path d="M302.119 36.3354L358.217 -19.7617L418.532 40.5537L362.435 96.6508L302.119 36.3354Z" fill="white" fill-opacity="0.01"/>
<path d="M344.193 22.3123C342.583 23.9174 340.534 25.0115 338.307 25.4571C336.079 25.9025 333.771 25.6794 331.674 24.8159C329.576 23.9523 327.783 22.4869 326.52 20.604C325.257 18.7211 324.58 16.5049 324.575 14.2344C324.618 14.0381 324.728 13.8625 324.884 13.7364C325.041 13.6104 325.236 13.5415 325.437 13.5412C325.638 13.5409 325.833 13.6092 325.989 13.7347C326.146 13.8603 326.254 14.0357 326.297 14.2318C326.293 15.5186 326.544 16.7927 327.037 17.98C327.53 19.1672 328.254 20.2438 329.168 21.1472C330.072 22.0596 331.149 22.7832 332.336 23.2764C333.523 23.7695 334.796 24.0224 336.083 24.0205C337.37 24.0185 338.644 23.7617 339.832 23.265C341.021 22.7682 342.1 22.0413 343.007 21.1262C343.165 20.9684 343.379 20.8796 343.602 20.8792C343.824 20.8789 344.038 20.967 344.195 21.1243C344.352 21.2816 344.441 21.4951 344.44 21.7179C344.44 21.9407 344.351 22.1545 344.193 22.3123Z" fill="#344563"/>
<path d="M344.193 22.3124C344.036 22.4701 343.822 22.559 343.599 22.5593C343.376 22.5596 343.163 22.4715 343.005 22.3142C342.848 22.1569 342.76 21.9433 342.76 21.7206C342.761 21.4978 342.849 21.284 343.007 21.1262C344.383 19.7563 345.322 18.0097 345.705 16.1086C346.089 14.2071 345.899 12.2364 345.16 10.4465C344.422 8.65636 343.168 7.12775 341.557 6.05415C339.946 4.98056 338.051 4.41055 336.113 4.41625C335.917 4.37344 335.741 4.26473 335.616 4.10827C335.49 3.95181 335.422 3.75693 335.422 3.55611C335.422 3.35529 335.491 3.16017 335.617 3.00351C335.744 2.84655 335.919 2.73728 336.115 2.69372C339.159 2.70403 342.072 3.91545 344.221 6.06439C346.37 8.21333 347.581 11.1261 347.591 14.1697C347.592 15.6827 347.292 17.1815 346.708 18.5796C346.125 19.9773 345.27 21.2461 344.193 22.3124Z" fill="#0065FF"/>
<path d="M360.769 39.5422L340.543 59.7681C338.555 61.756 335.861 62.8752 333.054 62.8795C330.247 62.8837 327.557 61.7727 325.575 59.7908C325.417 59.6335 325.329 59.42 325.33 59.1972C325.33 58.9744 325.419 58.7606 325.576 58.6029C325.734 58.4451 325.948 58.3563 326.171 58.3559C326.394 58.3556 326.607 58.4438 326.764 58.6011C328.437 60.2581 330.698 61.1858 333.057 61.1822C335.415 61.1786 337.679 60.2442 339.357 58.5819L359.583 38.356C359.658 38.2726 359.749 38.2055 359.852 38.1599C359.954 38.1139 360.065 38.0902 360.177 38.0901C360.289 38.0897 360.4 38.1134 360.502 38.1588C360.604 38.2043 360.696 38.2711 360.771 38.3542C360.928 38.5114 361.016 38.725 361.016 38.9478C361.015 39.1705 360.927 39.3844 360.769 39.5422Z" fill="#253858"/>
<path d="M381.649 18.6618L360.769 39.5421C360.611 39.6999 360.397 39.7886 360.174 39.789C359.952 39.7893 359.738 39.7011 359.581 39.5439C359.498 39.4693 359.431 39.3777 359.385 39.2755C359.34 39.1733 359.316 39.0623 359.317 38.9504C359.317 38.8383 359.341 38.7274 359.386 38.6251C359.432 38.5225 359.499 38.431 359.583 38.356L380.463 17.4757C382.125 15.7979 383.06 13.5336 383.063 11.1755C383.067 8.81738 382.139 6.55604 380.482 4.88341C380.325 4.72612 380.237 4.51252 380.237 4.28974C380.237 4.06697 380.326 3.8531 380.484 3.69545C380.641 3.53781 380.855 3.44889 381.078 3.44858C381.301 3.44828 381.515 3.53636 381.672 3.69365C383.654 5.67555 384.765 8.36596 384.76 11.1731C384.756 13.9802 383.637 16.6738 381.649 18.6618Z" fill="#0065FF"/>
<path d="M396.319 19.5304L368.538 47.3112C368.38 47.469 368.167 47.558 367.944 47.5584C367.721 47.5588 367.508 47.4705 367.35 47.313C367.193 47.1559 367.105 46.9423 367.105 46.7195C367.105 46.4967 367.194 46.2829 367.352 46.1251L395.133 18.3443C395.291 18.1864 395.504 18.0978 395.727 18.0975C395.95 18.0971 396.164 18.1853 396.321 18.3425C396.478 18.4999 396.566 18.7136 396.566 18.9364C396.566 19.1591 396.477 19.3725 396.319 19.5304Z" fill="#0065FF"/>
<path d="M368.538 47.3112L341.412 74.4377C341.254 74.5955 341.04 74.6845 340.817 74.6849C340.595 74.6852 340.381 74.597 340.224 74.4395C340.066 74.2823 339.978 74.0687 339.978 73.846C339.979 73.6232 340.068 73.4093 340.225 73.2516L367.352 46.1251C367.51 45.9673 367.724 45.8786 367.946 45.8782C368.169 45.8778 368.383 45.9661 368.54 46.1233C368.697 46.2807 368.786 46.4943 368.785 46.7171C368.785 46.9399 368.696 47.1534 368.538 47.3112Z" fill="#253858"/>
<path d="M356.09 89.1159C355.932 89.2737 355.718 89.3627 355.495 89.3628C355.273 89.3632 355.059 89.2752 354.902 89.1177C352.92 87.136 351.809 84.4455 351.813 81.6384C351.817 78.8313 352.937 76.1375 354.925 74.1495L375.15 53.9236C375.308 53.7659 375.522 53.6771 375.745 53.6768C375.968 53.6764 376.181 53.7647 376.338 53.9218C376.496 54.0793 376.584 54.2926 376.583 54.5154C376.583 54.7385 376.494 54.952 376.337 55.1098L356.111 75.3357C355.283 76.1638 354.625 77.1465 354.176 78.2274C353.727 79.3082 353.495 80.4666 353.493 81.636C353.49 83.9973 354.424 86.2609 356.092 87.928C356.249 88.0854 356.337 88.2988 356.337 88.5215C356.337 88.7446 356.247 88.9582 356.09 89.1159Z" fill="#253858"/>
<path d="M410.997 34.2087C410.839 34.3663 410.626 34.4554 410.403 34.4555C410.18 34.4558 409.967 34.3679 409.809 34.2105C408.142 32.5433 405.879 31.6083 403.517 31.6122C401.156 31.6158 398.889 32.5571 397.217 34.2296L376.337 55.1098C376.179 55.2676 375.965 55.3566 375.742 55.3567C375.519 55.3571 375.306 55.2691 375.149 55.1116C374.992 54.9545 374.903 54.7409 374.904 54.5181C374.904 54.2953 374.993 54.0814 375.15 53.9237L396.031 33.0435C398.019 31.0554 400.712 29.9364 403.519 29.9321C406.327 29.9279 409.017 31.039 410.999 33.0207C411.156 33.1782 411.244 33.3916 411.244 33.6143C411.244 33.8374 411.155 34.0507 410.997 34.2087Z" fill="#0065FF"/>
<path d="M344.93 26.2017L348.083 23.0489C349.679 21.4451 351.575 20.1705 353.662 19.2991C355.749 18.4274 357.987 17.9754 360.246 17.9694C362.505 17.9631 364.742 18.4028 366.829 19.2629C368.916 20.123 370.811 21.387 372.406 22.9822L378.752 29.328L351.209 56.8709L344.863 50.5251C343.268 48.9299 342.004 47.0347 341.144 44.948C340.284 42.8614 339.844 40.6243 339.85 38.3649C339.857 36.1055 340.308 33.8682 341.18 31.781C342.052 29.6939 343.326 27.7979 344.93 26.2017Z" fill="#253858"/>
<path d="M348.197 26.3155L337.846 36.6665C337.746 36.7667 337.626 36.8458 337.495 36.8989C337.364 36.952 337.223 36.9781 337.082 36.9755C336.94 36.973 336.801 36.9419 336.672 36.884C336.543 36.8262 336.427 36.7429 336.331 36.6391C333.739 33.6408 332.381 29.7687 332.53 25.8015C332.679 21.8343 334.325 18.0661 337.136 15.2547L348.197 26.3155Z" fill="url(#paint4_linear)"/>
<path d="M337.136 15.2549C339.945 12.4474 343.71 10.8065 347.673 10.6626C351.636 10.5187 355.502 11.8828 358.49 14.4799C358.597 14.5699 358.684 14.6813 358.745 14.8068C358.806 14.9322 358.84 15.0693 358.846 15.2087C358.851 15.3484 358.827 15.4877 358.776 15.6179C358.725 15.748 358.647 15.866 358.548 15.9647L348.197 26.3157L337.136 15.2549Z" fill="url(#paint5_linear)"/>
<path d="M360.267 18.1599C357.585 20.8423 356.075 24.4767 356.069 28.264C356.063 32.0513 357.562 35.6812 360.236 38.3552L390.483 68.6019C395.837 63.2322 398.85 55.9654 398.861 48.394C398.873 40.8226 395.882 33.5649 390.544 28.2115L373.553 11.2199C372.711 10.3784 371.569 9.90688 370.377 9.90849C369.185 9.91042 368.041 10.3855 367.197 11.2296L360.267 18.1599Z" fill="url(#paint6_linear)"/>
<path d="M374.272 26.3357L363.373 26.3225L363.35 41.4689L348.203 41.4919L348.217 52.3914L363.363 52.3684L363.34 67.5147L374.21 67.4982L374.233 52.3518L389.379 52.3288L389.396 41.459L374.249 41.4821L374.272 26.3357Z" fill="#F15538"/>
<path d="M333.101 51.6717L350.093 68.6633C355.44 74.011 362.7 77.0093 370.275 76.9976C377.85 76.9863 385.119 73.9661 390.483 68.6019L360.236 38.3552C357.562 35.6811 353.932 34.1821 350.145 34.1879C346.358 34.1937 342.723 35.7037 340.041 38.3858L333.111 45.3162C332.693 45.7341 332.361 46.23 332.134 46.7756C331.908 47.3212 331.79 47.9058 331.79 48.4959C331.789 49.0861 331.904 49.6703 332.129 50.2152C332.354 50.7601 332.684 51.255 333.101 51.6717Z" fill="url(#paint7_linear)"/>
<path d="M374.272 26.3357L363.373 26.3225L363.35 41.4689L348.203 41.4919L348.217 52.3914L363.363 52.3684L363.34 67.5147L374.21 67.4982L374.233 52.3518L389.379 52.3288L389.396 41.459L374.249 41.4821L374.272 26.3357Z" fill="#E64418"/>
</g>
<g clip-path="url(#clip2)">
<path d="M227.573 -4.57324L301.961 69.8148L221.736 150.04L147.348 75.6521L227.573 -4.57324Z" fill="white" fill-opacity="0.01"/>
<path d="M246.111 51.2769C243.983 49.1408 242.534 46.4228 241.947 43.4651C241.359 40.5073 241.66 37.4419 242.811 34.6548C243.963 31.8677 245.912 29.4834 248.416 27.802C250.919 26.1205 253.863 25.2172 256.879 25.2056C257.139 25.2631 257.372 25.4078 257.54 25.6158C257.707 25.8238 257.798 26.0826 257.798 26.3494C257.798 26.6162 257.707 26.875 257.54 27.083C257.372 27.2909 257.139 27.4357 256.879 27.4932C255.17 27.4896 253.477 27.826 251.899 28.4829C250.322 29.1397 248.89 30.1038 247.689 31.3191C246.475 32.5222 245.512 33.9537 244.855 35.5311C244.197 37.1084 243.859 38.8003 243.859 40.5091C243.859 42.218 244.197 43.9099 244.855 45.4872C245.512 47.0646 246.475 48.4961 247.689 49.6992C247.898 49.9084 248.016 50.1921 248.016 50.488C248.016 50.7839 247.898 51.0676 247.689 51.2769C247.48 51.4861 247.196 51.6036 246.9 51.6036C246.604 51.6036 246.32 51.4861 246.111 51.2769Z" fill="#344563"/>
<path d="M246.111 51.2767C245.902 51.0675 245.784 50.7838 245.784 50.4879C245.784 50.192 245.902 49.9082 246.111 49.699C246.32 49.4898 246.604 49.3722 246.9 49.3723C247.196 49.3723 247.48 49.4898 247.689 49.699C249.505 51.5233 251.823 52.7671 254.347 53.2721C256.872 53.7775 259.489 53.5217 261.868 52.537C264.247 51.5527 266.279 49.8837 267.709 47.7423C269.138 45.6009 269.898 43.0833 269.895 40.509C269.952 40.2483 270.097 40.0152 270.305 39.8482C270.513 39.6811 270.772 39.5902 271.039 39.5901C271.305 39.5901 271.564 39.6813 271.772 39.8482C271.98 40.0155 272.125 40.2486 272.182 40.509C272.163 44.5512 270.548 48.422 267.69 51.2803C264.831 54.1386 260.96 55.7534 256.918 55.7732C254.909 55.7766 252.919 55.3811 251.063 54.6089C249.208 53.8372 247.525 52.7045 246.111 51.2767Z" fill="#0065FF"/>
<path d="M223.195 73.3248L196.374 46.5041C193.738 43.868 192.257 40.2927 192.257 36.5647C192.257 32.8367 193.738 29.2614 196.374 26.6253C196.584 26.4161 196.867 26.2985 197.163 26.2985C197.459 26.2985 197.743 26.4161 197.952 26.6253C198.161 26.8345 198.279 27.1182 198.279 27.4141C198.279 27.71 198.161 27.9938 197.952 28.203C195.748 30.4278 194.511 33.4329 194.511 36.5647C194.511 39.6965 195.748 42.7017 197.952 44.9265L224.773 71.7472C224.883 71.8467 224.972 71.968 225.033 72.1042C225.094 72.2399 225.125 72.3872 225.125 72.5361C225.125 72.6847 225.093 72.8321 225.033 72.968C224.972 73.1038 224.883 73.2256 224.773 73.3248C224.564 73.5339 224.28 73.6515 223.984 73.6515C223.688 73.6515 223.404 73.534 223.195 73.3248Z" fill="#253858"/>
<path d="M250.884 101.014L223.195 73.3251C222.986 73.1159 222.869 72.832 222.868 72.5362C222.868 72.2404 222.986 71.9565 223.195 71.7474C223.294 71.6368 223.416 71.548 223.552 71.4875C223.688 71.4269 223.835 71.3952 223.984 71.3955C224.133 71.3954 224.28 71.4266 224.416 71.4875C224.552 71.5479 224.673 71.6368 224.773 71.7474L252.461 99.4358C254.686 101.64 257.691 102.877 260.823 102.877C263.955 102.877 266.96 101.64 269.185 99.4359C269.394 99.2267 269.678 99.1092 269.974 99.1092C270.27 99.1092 270.553 99.2268 270.762 99.4359C270.971 99.6449 271.089 99.9288 271.089 100.225C271.089 100.52 270.972 100.804 270.762 101.014C268.126 103.65 264.551 105.131 260.823 105.131C257.095 105.131 253.52 103.65 250.884 101.014Z" fill="#0065FF"/>
<path d="M249.7 120.498L212.861 83.659C212.652 83.4498 212.534 83.1663 212.534 82.8705C212.534 82.5746 212.652 82.2908 212.861 82.0813C213.07 81.8723 213.354 81.7546 213.65 81.7547C213.946 81.7547 214.23 81.8721 214.439 82.0813L251.278 118.92C251.487 119.13 251.605 119.413 251.605 119.709C251.605 120.005 251.487 120.289 251.278 120.498C251.069 120.707 250.785 120.825 250.489 120.825C250.193 120.825 249.91 120.707 249.7 120.498Z" fill="#0065FF"/>
<path d="M212.861 83.6586L176.89 47.6873C176.681 47.4781 176.563 47.1946 176.563 46.8988C176.563 46.603 176.681 46.3191 176.89 46.1096C177.099 45.9006 177.383 45.783 177.679 45.783C177.975 45.783 178.258 45.9004 178.468 46.1096L214.439 82.0809C214.648 82.2901 214.766 82.574 214.766 82.8699C214.766 83.1657 214.648 83.4496 214.439 83.6586C214.23 83.8681 213.946 83.9857 213.65 83.9857C213.354 83.9857 213.07 83.8678 212.861 83.6586Z" fill="#253858"/>
<path d="M157.366 67.211C157.157 67.0018 157.039 66.7183 157.04 66.422C157.04 66.1262 157.157 65.8427 157.366 65.6333C160.002 62.9974 163.578 61.5163 167.306 61.5163C171.034 61.5162 174.609 62.9972 177.245 65.6333L204.066 92.454C204.275 92.6632 204.393 92.9471 204.393 93.2429C204.393 93.5388 204.275 93.8226 204.066 94.0317C203.857 94.2411 203.573 94.3584 203.277 94.3583C202.981 94.3587 202.698 94.2409 202.488 94.0317L175.668 67.211C174.57 66.1129 173.266 65.2421 171.831 64.6477C170.397 64.0532 168.859 63.7475 167.306 63.7477C164.17 63.7474 161.162 64.9935 158.944 67.211C158.735 67.4204 158.451 67.5377 158.155 67.5376C157.859 67.538 157.576 67.4202 157.366 67.211Z" fill="#253858"/>
<path d="M230.177 140.021C229.968 139.812 229.85 139.529 229.85 139.233C229.85 138.937 229.967 138.653 230.177 138.444C232.394 136.226 233.641 133.218 233.64 130.082C233.64 126.946 232.395 123.938 230.177 121.72L202.488 94.0318C202.279 93.8226 202.161 93.5391 202.162 93.2429C202.162 92.947 202.279 92.6636 202.488 92.4541C202.697 92.2451 202.981 92.1274 203.277 92.1275C203.573 92.1275 203.857 92.2449 204.066 92.4541L231.754 120.142C234.391 122.779 235.871 126.354 235.871 130.082C235.871 133.81 234.39 137.385 231.754 140.021C231.545 140.231 231.261 140.348 230.966 140.348C230.669 140.348 230.386 140.231 230.177 140.021Z" fill="#0065FF"/>
<path d="M240.944 52.2629L245.125 56.4438C247.252 58.5602 248.941 61.0759 250.094 63.8457C251.247 66.616 251.843 69.5866 251.846 72.587C251.85 75.5879 251.262 78.5596 250.115 81.3326C248.969 84.1058 247.286 86.6252 245.164 88.747L236.724 97.1876L200.2 60.6641L208.641 52.2235C210.763 50.1017 213.282 48.4193 216.055 47.2727C218.828 46.1261 221.8 45.5378 224.801 45.5414C227.801 45.5451 230.772 46.1406 233.542 47.294C236.312 48.4474 238.827 50.1359 240.944 52.2629Z" fill="#253858"/>
<path d="M240.786 56.6015L227.06 42.8755C226.927 42.7428 226.823 42.5845 226.752 42.4102C226.682 42.2359 226.648 42.0493 226.651 41.8614C226.655 41.6735 226.697 41.4883 226.774 41.3169C226.851 41.1455 226.962 40.9915 227.1 40.864C231.087 37.4151 236.232 35.6036 241.501 35.7938C246.769 35.9841 251.77 38.162 255.498 41.8895L240.786 56.6015Z" fill="url(#paint8_linear)"/>
<path d="M255.498 41.8896C259.221 45.6144 261.393 50.6118 261.576 55.8749C261.759 61.1379 259.939 66.2745 256.484 70.2487C256.364 70.3905 256.216 70.5056 256.05 70.5871C255.883 70.6686 255.701 70.7143 255.516 70.7219C255.33 70.7292 255.145 70.698 254.972 70.6302C254.8 70.5623 254.643 70.4593 254.512 70.3276L240.786 56.6016L255.498 41.8896Z" fill="url(#paint9_linear)"/>
<path d="M251.593 72.6153C248.036 69.0584 243.212 67.0603 238.183 67.0603C233.153 67.0604 228.329 69.0585 224.772 72.6153L184.541 112.846C191.662 119.946 201.307 123.933 211.362 123.933C221.417 123.933 231.062 119.946 238.183 112.846L260.783 90.2459C261.903 89.1267 262.531 87.6083 262.531 86.0256C262.531 84.4425 261.903 82.9247 260.783 81.8053L251.593 72.6153Z" fill="url(#paint10_linear)"/>
<path d="M240.707 91.2322L240.747 76.7568L220.631 76.7569L220.631 56.6413L206.156 56.6808L206.156 76.7963L186.04 76.7963L186.04 91.2322L206.156 91.2322L206.156 111.348L220.592 111.348L220.592 91.2322L240.707 91.2322Z" fill="#F15538"/>
<path d="M207.142 36.6044L184.541 59.2048C177.428 66.3178 173.432 75.9659 173.432 86.0254C173.432 96.0853 177.428 105.733 184.541 112.846L224.772 72.6152C228.329 69.0584 230.327 64.2346 230.327 59.2047C230.327 54.1749 228.329 49.351 224.772 45.7944L215.582 36.6044C215.028 36.0501 214.37 35.6105 213.646 35.3106C212.922 35.0106 212.146 34.8563 211.362 34.8562C210.578 34.8562 209.802 35.0106 209.078 35.3106C208.354 35.6105 207.696 36.0501 207.142 36.6044Z" fill="url(#paint11_linear)"/>
<path d="M240.707 91.2322L240.747 76.7568L220.631 76.7569L220.631 56.6413L206.156 56.6808L206.156 76.7963L186.04 76.7963L186.04 91.2322L206.156 91.2322L206.156 111.348L220.592 111.348L220.592 91.2322L240.707 91.2322Z" fill="#E64418"/>
</g>
<path d="M179 120C167.033 132.667 130.154 158 78.3757 158C26.5972 158 4.55085 140.773 0 132.16" stroke="#FF8F73" stroke-width="2" stroke-dasharray="4 6"/>
<defs>
<linearGradient id="paint0_linear" x1="1045.17" y1="1050.62" x2="1617.36" y2="476.651" gradientUnits="userSpaceOnUse">
<stop stop-color="#0049B0"/>
<stop offset="1" stop-color="#0065FF"/>
</linearGradient>
<linearGradient id="paint1_linear" x1="69.4983" y1="41.0601" x2="80.5696" y2="29.9594" gradientUnits="userSpaceOnUse">
<stop stop-color="#0065FF"/>
<stop offset="1" stop-color="#66A3FF"/>
</linearGradient>
<linearGradient id="paint2_linear" x1="60.4208" y1="91.7825" x2="101.871" y2="50.2062" gradientUnits="userSpaceOnUse">
<stop stop-color="#0065FF"/>
<stop offset="0.72" stop-color="#66A3FF"/>
</linearGradient>
<linearGradient id="paint3_linear" x1="42.9557" y1="86.1798" x2="73.1961" y2="55.8472" gradientUnits="userSpaceOnUse">
<stop stop-color="#0049B0"/>
<stop offset="1" stop-color="#0065FF"/>
</linearGradient>
<linearGradient id="paint4_linear" x1="1751.73" y1="50.2858" x2="1750.48" y2="-760.173" gradientUnits="userSpaceOnUse">
<stop stop-color="#0049B0"/>
<stop offset="1" stop-color="#0065FF"/>
</linearGradient>
<linearGradient id="paint5_linear" x1="347.965" y1="26.322" x2="347.944" y2="10.644" gradientUnits="userSpaceOnUse">
<stop stop-color="#0065FF"/>
<stop offset="1" stop-color="#66A3FF"/>
</linearGradient>
<linearGradient id="paint6_linear" x1="377.412" y1="68.607" x2="377.323" y2="9.89854" gradientUnits="userSpaceOnUse">
<stop stop-color="#0065FF"/>
<stop offset="0.72" stop-color="#66A3FF"/>
</linearGradient>
<linearGradient id="paint7_linear" x1="361.101" y1="76.9949" x2="361.036" y2="34.1633" gradientUnits="userSpaceOnUse">
<stop stop-color="#0049B0"/>
<stop offset="1" stop-color="#0065FF"/>
</linearGradient>
<linearGradient id="paint8_linear" x1="206.117" y1="1920.66" x2="1282.47" y2="1920.62" gradientUnits="userSpaceOnUse">
<stop stop-color="#0049B0"/>
<stop offset="1" stop-color="#0065FF"/>
</linearGradient>
<linearGradient id="paint9_linear" x1="240.778" y1="56.2939" x2="261.6" y2="56.298" gradientUnits="userSpaceOnUse">
<stop stop-color="#0065FF"/>
<stop offset="1" stop-color="#66A3FF"/>
</linearGradient>
<linearGradient id="paint10_linear" x1="184.561" y1="95.4878" x2="262.531" y2="95.4878" gradientUnits="userSpaceOnUse">
<stop stop-color="#0065FF"/>
<stop offset="0.72" stop-color="#66A3FF"/>
</linearGradient>
<linearGradient id="paint11_linear" x1="173.454" y1="73.8418" x2="230.338" y2="73.8418" gradientUnits="userSpaceOnUse">
<stop stop-color="#0049B0"/>
<stop offset="1" stop-color="#0065FF"/>
</linearGradient>
<clipPath id="clip0">
<rect width="79.5016" height="85.5506" fill="white" transform="translate(30 15.5542)"/>
</clipPath>
<clipPath id="clip1">
<rect width="79.5016" height="85.5506" fill="white" transform="translate(302 36.2161) rotate(-45)"/>
</clipPath>
<clipPath id="clip2">
<rect width="105.424" height="113.791" fill="white" transform="translate(227.731 -4.73096) rotate(45)"/>
</clipPath>
</defs>
</svg>
